# xmcd
#
# Track frame offsets: 
#        150
#        14163
#        24865
#        39850
#        54183
#        65240
#        78923
#        88673
#        102293
#        113903
#
# Disc length: 1713 seconds
#
# Revision: 5
# Processed by: cddbd v1.5.2PL0 Copyright (c) Steve Scherf et al.
# Submitted via: ExactAudioCopyFreeDBPlugin 1.0
#
DISCID=7506af0a
DTITLE=George Jones - Nothin' Like George Jones
DYEAR=1993
DGENRE=Country
TTITLE0=The Grand Tour
TTITLE1=Love Lives Again
TTITLE2=You Always Look Your Best (Here In My Arms)
TTITLE3=I'll Just Take It Out In Love
TTITLE4=She's My Rock
TTITLE5=I'll Take You To My World
TTITLE6=Kiss An Angel Good Morning
TTITLE7=These Days (I Barely Get By)
TTITLE8=Baby, There's Nothing Like You
TTITLE9=He Stopped Loving Her Today
EXTD=
EXTT0=
EXTT1=
EXTT2=
EXTT3=
EXTT4=
EXTT5=
EXTT6=
EXTT7=
EXTT8=
EXTT9=
PLAYORDER=
